{
	"asset":{
		"generator":"Khronos glTF Blender I/O v3.6.28",
		"version":"2.0"
	},
	"scene":0,
	"scenes":[
		{
			"name":"Scene",
			"nodes":[
				0
			]
		}
	],
	"nodes":[
		{
			"mesh":0,
			"name":"Cube"
		}
	],
	"materials":[
		{
			"doubleSided":true,
			"name":"Label",
			"pbrMetallicRoughness":{
				"baseColorFactor":[
					0.800000011920929,
					0.800000011920929,
					0.800000011920929,
					1
				],
				"metallicFactor":0,
				"roughnessFactor":0.5
			}
		},
		{
			"doubleSided":true,
			"name":"Cart",
			"pbrMetallicRoughness":{
				"baseColorFactor":[
					0.800000011920929,
					0.800000011920929,
					0.800000011920929,
					1
				],
				"metallicFactor":0,
				"roughnessFactor":0.5
			}
		}
	],
	"meshes":[
		{
			"name":"Cube.001",
			"primitives":[
				{
					"attributes":{
						"POSITION":0,
						"NORMAL":1,
						"TEXCOORD_0":2
					},
					"indices":3,
					"material":0
				},
				{
					"attributes":{
						"POSITION":4,
						"NORMAL":5,
						"TEXCOORD_0":6
					},
					"indices":7,
					"material":1
				}
			]
		}
	],
	"accessors":[
		{
			"bufferView":0,
			"componentType":5126,
			"count":162,
			"max":[
				0.6929050087928772,
				0.6278831958770752,
				0.19698725640773773
			],
			"min":[
				-0.5996532440185547,
				-0.8420484066009521,
				0.18775346875190735
			],
			"type":"VEC3"
		},
		{
			"bufferView":1,
			"componentType":5126,
			"count":162,
			"type":"VEC3"
		},
		{
			"bufferView":2,
			"componentType":5126,
			"count":162,
			"type":"VEC2"
		},
		{
			"bufferView":3,
			"componentType":5123,
			"count":540,
			"type":"SCALAR"
		},
		{
			"bufferView":4,
			"componentType":5126,
			"count":2362,
			"max":[
				1.5628150701522827,
				0.7619672417640686,
				0.19698725640773773
			],
			"min":[
				-1.5628150701522827,
				-1.0000001192092896,
				-0.19698725640773773
			],
			"type":"VEC3"
		},
		{
			"bufferView":5,
			"componentType":5126,
			"count":2362,
			"type":"VEC3"
		},
		{
			"bufferView":6,
			"componentType":5126,
			"count":2362,
			"type":"VEC2"
		},
		{
			"bufferView":7,
			"componentType":5123,
			"count":5448,
			"type":"SCALAR"
		}
	],
	"bufferViews":[
		{
			"buffer":0,
			"byteLength":1944,
			"byteOffset":0,
			"target":34962
		},
		{
			"buffer":0,
			"byteLength":1944,
			"byteOffset":1944,
			"target":34962
		},
		{
			"buffer":0,
			"byteLength":1296,
			"byteOffset":3888,
			"target":34962
		},
		{
			"buffer":0,
			"byteLength":1080,
			"byteOffset":5184,
			"target":34963
		},
		{
			"buffer":0,
			"byteLength":28344,
			"byteOffset":6264,
			"target":34962
		},
		{
			"buffer":0,
			"byteLength":28344,
			"byteOffset":34608,
			"target":34962
		},
		{
			"buffer":0,
			"byteLength":18896,
			"byteOffset":62952,
			"target":34962
		},
		{
			"buffer":0,
			"byteLength":10896,
			"byteOffset":81848,
			"target":34963
		}
	],
	"buffers":[
		{
			"byteLength":92744,
			"uri":"data:application/octet-stream;base64,"
		}
	]
}
